# xmcd
#
# Track frame offsets:
#	150
#	18926
#	36542
#	40529
#	71739
#	95409
#	112029
#	134372
#	165408
#	190478
#	203162
#	214491
#	281757
#	306997
#
# Disc length: 4440 seconds
#
# Revision: 0
# Processed by: cddbd v1.5.1PL0 Copyright (c) Steve Scherf et al.
# Submitted via: dBpowerAMP V4.0
#
DISCID=d411560e
DTITLE=Joe Bonamassa - Blues Deluxe
DYEAR=1900
DGENRE=Blues
TTITLE0=You Upset Me Baby
TTITLE1=Burning Hell
TTITLE2=Blues Deluxe
TTITLE3=Man of Many Words
TTITLE4=Woke Up Dreaming
TTITLE5=I Don't Live Anywhere
TTITLE6=Wild About You Baby
TTITLE7=Long Distance Blues
TTITLE8=Pack It Up
TTITLE9=Left Overs
TTITLE10=Wlaking Blues
TTITLE11=Mumbling Word
TTITLE12=It's On you (bonus track)
TTITLE13=Revenge of The Ten Gallon Hat(bonus track)
EXTD=
EXTT0=
EXTT1=
EXTT2=
EXTT3=
EXTT4=
EXTT5=
EXTT6=
EXTT7=
EXTT8=
EXTT9=
EXTT10=
EXTT11=
EXTT12=
EXTT13=
PLAYORDER=
